<svg xmlns="http://www.w3.org/2000/svg" viewBox="0 0 64 64" width="64" height="64">
  <rect width="64" height="64" rx="16" fill="#0f172a"/>
  <!-- Three Long Vân Brand Blobs -->
  <ellipse cx="32" cy="22" rx="14" ry="14" fill="#38bdf8" transform="rotate(-20 32 22)"/>
  <ellipse cx="21" cy="39" rx="14" ry="14" fill="#2563eb" transform="rotate(10 21 39)"/>
  <ellipse cx="43" cy="40" rx="14" ry="14" fill="#10b981" transform="rotate(-5 43 40)"/>
  <!-- Stylized Cloud / LV Mark -->
  <path d="M25 35 C25 30 30 27 34 29 C38 26 43 28 44 32 C47 33 49 36 47 39 C46 41 43 42 40 42 L25 42 C22 42 20 39 22 36 C23 35 24 35 25 35 Z" fill="#ffffff"/>
</svg>
